<?xml version="1.0" standalone="no"?>
<!DOCTYPE svg PUBLIC "-//W3C//DTD SVG 20010904//EN"
 "http://www.w3.org/TR/2001/REC-SVG-20010904/DTD/svg10.dtd">
<svg version="1.0" xmlns="http://www.w3.org/2000/svg"
 width="260.000000pt" height="260.000000pt" viewBox="0 0 260.000000 260.000000"
 preserveAspectRatio="xMidYMid meet">
<metadata>
Created by potrace 1.11, written by Peter Selinger 2001-2013
</metadata>
<g transform="translate(0.000000,260.000000) scale(0.100000,-0.100000)"
fill="#000000" stroke="none">
<path d="M172 2570 c-65 -33 -109 -76 -144 -143 l-23 -42 -3 -1069 c-3 -1204
-8 -1124 74 -1215 24 -27 68 -61 96 -75 l52 -26 1075 0 1076 0 50 24 c58 27
128 99 156 159 18 40 19 82 19 1108 0 1219 7 1123 -89 1220 -96 96 -2 89
-1216 89 l-1062 0 -61 -30z m881 -636 c40 -9 73 -18 75 -19 7 -7 -28 -74 -49
-94 -20 -19 -34 -21 -125 -21 -99 0 -103 -1 -123 -26 -48 -61 -18 -103 121
-176 135 -70 201 -133 218 -207 32 -135 -48 -254 -198 -297 -80 -23 -215 -15
-311 19 -40 14 -75 28 -78 31 -3 3 11 35 32 71 29 52 40 65 53 59 108 -45 183
-57 243 -39 63 19 90 89 52 133 -10 11 -70 48 -133 82 -179 95 -215 141 -208
265 3 58 9 80 31 113 30 46 85 86 144 108 52 18 169 17 256 -2z m437 -174 c0
-129 3 -170 13 -170 6 0 71 76 142 170 l130 169 109 1 108 0 -44 -52 c-169
-202 -268 -328 -268 -344 0 -11 75 -112 165 -227 91 -114 165 -210 165 -212 0
-7 -195 -6 -214 1 -8 3 -75 86 -148 185 -72 98 -138 179 -145 179 -10 0 -13
-29 -13 -127 0 -102 -4 -135 -18 -162 -23 -47 -61 -72 -116 -78 l-46 -6 0 422
0 421 90 0 90 0 0 -170z m-833 -937 c22 -54 43 -96 49 -95 5 2 26 46 48 98 21
52 45 94 52 94 9 0 2 -25 -22 -82 -20 -46 -43 -101 -51 -123 -20 -49 -37 -69
-55 -62 -12 4 -118 241 -118 262 0 3 13 5 29 5 27 0 31 -6 68 -97z m273 -41
c0 -103 1 -110 23 -120 18 -9 9 -11 -51 -11 -46 -1 -71 3 -67 9 3 6 15 10 26
10 17 0 19 8 19 90 0 87 -1 90 -22 90 -20 1 -18 4 12 19 60 32 60 32 60 -87z
m630 58 c0 -12 7 -20 18 -21 16 -1 16 -2 0 -6 -15 -4 -18 -16 -18 -78 0 -49 4
-75 13 -79 6 -3 3 -5 -8 -3 -18 2 -20 11 -23 72 -2 48 -7 74 -18 81 -13 10
-13 12 2 18 9 4 14 13 10 21 -3 9 0 15 9 15 8 0 15 -9 15 -20z m190 -50 c32
-60 -5 -140 -65 -140 -83 0 -109 133 -32 165 36 15 82 3 97 -25z m-574 15 c12
-8 24 -12 28 -10 3 3 2 -1 -4 -7 -5 -7 -10 -40 -10 -75 0 -35 -4 -63 -10 -63
-6 0 -10 28 -10 64 0 45 -5 69 -16 80 -18 19 -19 19 -47 5 -21 -10 -21 -10 -3
5 25 20 46 20 72 1z m114 -5 c16 -16 20 -33 20 -85 0 -37 -4 -65 -10 -65 -6 0
-10 27 -10 60 0 66 -23 105 -57 94 -15 -5 -16 -4 -3 5 22 16 38 13 60 -9z
m189 -6 c29 -37 27 -89 -4 -119 -74 -75 -180 35 -114 119 29 37 89 37 118 0z
m333 14 c7 -24 -4 -158 -13 -158 -5 0 -9 38 -9 85 0 47 4 85 9 85 5 0 11 -6
13 -12z m68 5 c0 -5 -11 -8 -24 -8 -13 0 -22 3 -19 8 2 4 13 7 24 7 10 0 19
-3 19 -7z m116 -4 c4 -8 -3 -9 -22 -5 -33 7 -71 -14 -60 -33 4 -6 25 -20 47
-31 24 -13 39 -27 39 -39 0 -29 -34 -53 -71 -49 -48 5 -46 23 3 23 60 0 64 27
8 55 -49 25 -59 44 -35 70 20 22 79 27 91 9z m-924 -11 c7 -24 -4 -148 -13
-148 -5 0 -9 36 -9 80 0 44 4 80 9 80 5 0 11 -6 13 -12z"/>
<path d="M1646 788 c-34 -48 -9 -128 39 -128 13 0 31 10 39 22 34 48 9 128
-39 128 -13 0 -31 -10 -39 -22z"/>
<path d="M1373 776 c-37 -79 35 -155 86 -90 24 30 26 55 10 87 -27 50 -73 51
-96 3z"/>
</g>
</svg>
